<!-- Generated by IcoMoon.io -->
<svg version="1.1" xmlns="http://www.w3.org/2000/svg" width="384" height="448" viewBox="0 0 384 448">
<title></title>
<g id="icomoon-ignore">
</g>
<path d="M384 336v32c0 8.75-7.25 16-16 16h-352c-8.75 0-16-7.25-16-16v-32c0-8.75 7.25-16 16-16h352c8.75 0 16 7.25 16 16zM384 208v32c0 8.75-7.25 16-16 16h-352c-8.75 0-16-7.25-16-16v-32c0-8.75 7.25-16 16-16h352c8.75 0 16 7.25 16 16zM384 80v32c0 8.75-7.25 16-16 16h-352c-8.75 0-16-7.25-16-16v-32c0-8.75 7.25-16 16-16h352c8.75 0 16 7.25 16 16z"></path>
</svg>
